<svg width="32" height="32" viewBox="0 0 32 32" fill="none" xmlns="http://www.w3.org/2000/svg">
<path d="M31.4777 27.1085L25.4211 21.0519C25.1477 20.7785 24.7771 20.6266 24.3883 20.6266H23.3981C25.0748 18.4822 26.0711 15.785 26.0711 12.8508C26.0711 5.87087 20.4154 0.21521 13.4354 0.21521C6.45547 0.21521 0.799805 5.87087 0.799805 12.8508C0.799805 19.8308 6.45547 25.4865 13.4354 25.4865C16.3696 25.4865 19.0668 24.4902 21.2112 22.8136V23.8038C21.2112 24.1925 21.3631 24.5631 21.6364 24.8365L27.6931 30.8931C28.2641 31.4641 29.1875 31.4641 29.7524 30.8931L31.4716 29.1739C32.0426 28.6029 32.0426 27.6795 31.4777 27.1085ZM13.4354 20.6266C9.14054 20.6266 5.65966 17.1518 5.65966 12.8508C5.65966 8.55594 9.13446 5.07507 13.4354 5.07507C17.7303 5.07507 21.2112 8.54987 21.2112 12.8508C21.2112 17.1457 17.7364 20.6266 13.4354 20.6266Z" fill="black"/>
</svg>
