<svg width="78" height="78" viewBox="0 0 78 78" fill="none" xmlns="http://www.w3.org/2000/svg">
<path d="M38.7154 0.821045C17.4104 0.821045 0.147583 18.0839 0.147583 39.3889C0.147583 60.6939 17.4104 77.9567 38.7154 77.9567C60.0205 77.9567 77.2833 60.6939 77.2833 39.3889C77.2833 18.0839 60.0205 0.821045 38.7154 0.821045ZM38.7154 4.02885C58.2033 4.02885 74.0755 19.8825 74.0755 39.3889C74.0755 48.011 70.9789 55.91 65.8427 62.0475C62.1343 60.527 53.6234 57.5788 48.617 56.0954C48.172 55.9656 48.1163 55.9286 48.1163 54.1114C48.1163 52.6095 48.7282 51.089 49.3401 49.7911C50.0076 48.4004 50.7679 46.0456 51.046 43.9317C51.8248 43.0232 52.9002 41.2431 53.5678 37.8313C54.1611 34.8275 53.883 33.7335 53.4936 32.7137C53.4565 32.6024 53.4009 32.4912 53.3823 32.3985C53.234 31.6939 53.438 28.041 53.9571 25.2041C54.3094 23.2571 53.8644 19.1222 51.1943 15.6919C49.507 13.5225 46.2621 10.8709 40.3471 10.5001H37.1023C31.28 10.8709 28.0536 13.5225 26.3478 15.6919C23.6591 19.1222 23.2141 23.2571 23.5664 25.2041C24.0856 28.041 24.2896 31.6939 24.1412 32.3985C24.1041 32.5283 24.0671 32.621 24.03 32.7322C23.6406 33.7521 23.3439 34.846 23.9558 37.8499C24.6419 41.2617 25.6988 43.0417 26.4776 43.9503C26.7557 46.0641 27.5345 48.4004 28.1834 49.8096C28.6655 50.8294 28.888 52.2201 28.888 54.1856C28.888 56.0213 28.8139 56.0398 28.4059 56.1696C23.1956 57.7086 14.9443 60.6754 11.6438 62.1031C6.47048 55.9471 3.35539 48.0296 3.35539 39.3889C3.35539 19.901 19.2275 4.02885 38.7154 4.02885Z" fill="black"/>
</svg>
